<svg width="400px" height="70px" viewBox="0 0 400 70" xmlns="http://www.w3.org/2000/svg"><g fill="none" fill-rule="evenodd"><path d="m107.54 21.2c-1.322 0-2.38 1.067-2.38 2.453v30.347c0 2.88-1.375 3.147-3.226 3.147-.635 0-1.111-.16-1.587-.16-1.164 0-2.01.96-2.01 2.027 0 .907.529 1.653 1.375 1.92.952.32 2.063.48 3.332.48 5.077 0 6.928-3.2 6.928-7.307v-30.453c0-1.387-1.058-2.453-2.433-2.453m2.909-8.267c0-1.493-1.216-2.72-2.697-2.72h-.317c-1.481 0-2.697 1.227-2.697 2.72v.213c0 1.493 1.216 2.72 2.697 2.72h.317c1.481 0 2.697-1.227 2.697-2.72v-.213m18.954 7.947c-8.197 0-13.539 5.707-13.539 14.13 0 8.427 5.342 14.13 13.539 14.13 8.145 0 13.539-5.707 13.539-14.13 0-8.427-5.394-14.13-13.539-14.13m0 23.84c-4.072 0-8.726-2.667-8.726-9.76 0-7.04 4.654-9.653 8.726-9.653 4.02 0 8.726 2.613 8.726 9.653 0 7.093-4.707 9.76-8.726 9.76m33.868-23.84c-4.707 0-7.616 2.453-9.837 4.907v-2.187c0-1.387-1.111-2.453-2.433-2.453-1.322 0-2.38 1.067-2.38 2.453v22.88c0 1.333 1.058 2.4 2.38 2.4 1.322 0 2.433-1.067 2.433-2.4v-16c2.115-2.667 4.866-5.12 8.673-5.12 4.125 0 5.818 2.453 5.818 6.507v14.613c0 1.333 1.058 2.4 2.38 2.4 1.322 0 2.433-1.067 2.433-2.4v-15.15c0-5.707-3.438-10.453-9.467-10.453m38.945 2.72c0-1.333-1.058-2.453-2.38-2.453-1.058 0-1.798.64-2.221 1.6l-8.303 20.267-8.145-20.373c-.37-.853-1.216-1.493-2.221-1.493-1.322 0-2.38 1.12-2.38 2.453 0 .373.106.747.212 1.013l9.943 24.427-3.438 8.907c-.106.267-.159.587-.159.853 0 1.28 1 2.347 2.274 2.347 1.111 0 1.798-.693 2.221-1.653l14.438-34.987c.106-.267.159-.587.159-.907m36.04-2.72c-5.818 0-8.515 3.467-9.731 5.493-1.111-2.773-3.861-5.493-8.092-5.493-5.02 0-7.51 2.827-8.991 4.907v-2.187c0-1.333-1.111-2.453-2.433-2.453-1.322 0-2.38 1.12-2.38 2.453v22.88c0 1.333 1.058 2.4 2.38 2.4 1.322 0 2.433-1.067 2.433-2.4v-16c1.428-2.4 3.596-5.12 7.616-5.12 4.02 0 5.394 2.24 5.394 6.72v14.4c0 1.333 1.058 2.4 2.38 2.4 1.322 0 2.433-1.067 2.433-2.4v-16c1.428-2.4 3.596-5.12 7.616-5.12 4.02 0 5.394 2.24 5.394 6.72v14.4c0 1.333 1.058 2.4 2.38 2.4 1.322 0 2.433-1.067 2.433-2.4v-15.36c0-4.747-2.591-10.24-8.832-10.24m27.839 0c-8.197 0-13.539 5.707-13.539 14.13 0 8.427 5.342 14.13 13.539 14.13 8.145 0 13.539-5.707 13.539-14.13 0-8.427-5.394-14.13-13.539-14.13m0 23.84c-4.072 0-8.726-2.667-8.726-9.76 0-7.04 4.654-9.653 8.726-9.653 4.02 0 8.726 2.613 8.726 9.653 0 7.093-4.707 9.76-8.726 9.76m39.26-2.133c-.423 0-.688.053-1.164.32-1.851.96-3.332 1.707-6.082 1.707-6.135 0-9.731-3.893-9.731-9.6 0-5.707 3.596-9.6 9.731-9.6 2.75 0 4.231.747 6.082 1.707.476.267.74.32 1.164.32 1.111 0 2.01-1.12 2.01-2.133 0-.8-.423-1.44-1.058-1.867-1.798-1.173-4.442-2.56-8.62-2.56-7.51 0-14.12 5.227-14.12 14.13 0 8.907 6.611 14.13 14.12 14.13 4.178 0 6.822-1.387 8.62-2.56.635-.427 1.058-1.067 1.058-1.867 0-1.013-.899-2.133-2.01-2.133m29.637 2.507l-9.572-12.8 7.616-6.88c.74-.747.899-1.387.899-1.813 0-1.067-.529-2.347-2.327-2.347-.635 0-1.164.32-1.587.693l-12.587 11.733v-21.813c0-1.333-1.111-2.453-2.433-2.453-1.322 0-2.38 1.12-2.38 2.453v34.613c0 1.333 1.058 2.4 2.38 2.4 1.322 0 2.433-1.067 2.433-2.4v-6.88l4.601-4.213 9.1 12.48c.476.587 1.216 1.013 1.957 1.013 1.428 0 2.433-.907 2.433-2.347 0-.533-.212-1.013-.529-1.44m14.723 4.053c4.707 0 7.616-2.453 9.837-4.907v2.187c0 1.387 1.111 2.453 2.433 2.453 1.322 0 2.38-1.067 2.38-2.453v-22.88c0-1.333-1.058-2.4-2.38-2.4-1.322 0-2.433 1.067-2.433 2.4v16c-2.115 2.667-4.866 5.12-8.673 5.12-4.125 0-5.818-2.453-5.818-6.507v-14.613c0-1.333-1.058-2.4-2.38-2.4-1.322 0-2.433 1.067-2.433 2.4v15.15c0 5.707 3.438 10.453 9.467 10.453m35.825 0c6.399 0 12.799-5.067 12.799-14.13 0-9.07-6.399-14.13-12.799-14.13-3.702 0-6.611 1.493-9.04 4.053v-1.387c0-1.333-1.058-2.4-2.433-2.4-1.322 0-2.38 1.067-2.38 2.4v35.15c0 1.387 1.058 2.453 2.38 2.453 1.375 0 2.433-1.067 2.433-2.453v-13.6c2.433 2.56 5.342 4.053 9.04 4.053m-.688-23.733c5.02 0 8.673 3.307 8.673 9.6 0 6.293-3.649 9.6-8.673 9.6-3.438 0-6.293-1.707-8.356-4v-11.2c2.063-2.293 4.918-4 8.356-4" stroke="#402860" stroke-width="2.5" fill="#402860"/><path d="m11.01 61.59c0 3.404 2.603 6.407 7.376 7.07 4.773.661 11.479.568 17.246.763 2.941.099 5.867.439 8.809.54 1.483.05 2.965.047 4.448.036 1.393-.009 2.797-.005 4.186-.115.855-.068 1.899-.126 2.76-.363 1.646-.453 1.849-.648 3.19-1.52.528-.344.964-.936 1.297-1.314.68-.772 1.012-1.769 1.204-2.706.331-1.601.401-3.142.401-4.756 0-2.48.002-4.961.002-7.442.002-2.274-.007-4.552.063-6.827.007-.239.017-.479.017-.718 0-.189-.009-.365-.02-.554-.078-1.276-.307-1.945-.99-3.081-.582-.964-1.764-1.927-2.917-2.422-1.426-.612-2.715-.83-4.324-.884-.857-.027-1.718-.02-2.577-.013-.517.004-1.033.007-1.546.004-2.078-.011-4.154-.041-6.225-.182-2.172-.146-4.326-.344-6.504-.403-1.212-.032-2.427-.027-3.641-.022-.896.005-1.794.009-2.688-.004-2.383-.031-4.725-.205-7.091-.432-.14-.013-.282-.02-.424-.02-.283 0-2.461-.22-3.092-.22-1.354.004-2.505.26-3.571.771-.521.331-1.042.664-1.563.997-.432.426-.839.866-1.223 1.321-.589.689-.914 1.637-1.055 2.489-.207 1.233-1.024 11.315-1.204 13.148-.089.898-.343 4.901-.343 6.862" fill="#ffd54f"/><path d="m5 53.629c0 5.01 3.369 9.421 9.545 10.393 6.177.972 14.855.836 22.318 1.121 3.806.146 7.593.646 11.399.794 1.919.074 3.837.069 5.756.053 1.803-.013 3.62-.008 5.418-.169 1.106-.101 2.458-.185 3.572-.535 2.13-.667 2.393-.953 4.128-2.236.683-.505 1.247-1.376 1.679-1.932.88-1.135 1.309-2.601 1.558-3.98.429-2.355.519-4.62.519-6.994 0-3.646.003-7.296.003-10.945.003-3.345-.008-6.695.082-10.04.008-.352.023-.704.023-1.056 0-.278-.011-.537-.025-.815-.102-1.876-.398-2.861-1.281-4.53-.753-1.418-2.283-2.834-3.775-3.562-1.845-.9-3.513-1.22-5.595-1.299-1.109-.04-2.223-.029-3.335-.019-.669.005-1.337.011-2 .005-2.689-.016-5.375-.061-8.06-.267-2.81-.214-5.598-.505-8.417-.593-1.569-.048-3.14-.04-4.712-.032-1.16.008-2.322.013-3.479-.005-3.084-.045-6.115-.302-9.176-.635-.181-.02-.364-.029-.549-.029-.366 0-3.185-.324-4-.324-1.752.006-3.242.382-4.622 1.134-.674.487-1.349.976-2.023 1.466-.559.627-1.086 1.273-1.583 1.942-.762 1.013-1.182 2.408-1.366 3.66-.268 1.813-1.325 16.639-1.559 19.336-.115 1.32-.444 7.208-.444 10.09" fill="#f47c7a" transform="matrix(-.99863-.05234-.05234.99863 78.09 2.045)"/><path d="m0 46.15c0 6.443 3.97 12.13 11.251 13.377 7.28 1.251 17.509 1.076 26.305 1.443 4.486.187 8.949.831 13.436 1.022 2.261.095 4.523.089 6.784.068 2.125-.017 4.267-.01 6.385-.218 1.304-.129 2.897-.238 4.21-.688 2.511-.858 2.82-1.226 4.865-2.878.805-.651 1.47-1.771 1.979-2.486 1.038-1.461 1.543-3.348 1.836-5.122.506-3.03.612-5.947.612-9 0-4.693.003-7.39.003-12.09.003-4.305-.01-8.617.096-12.922.01-.453.027-.906.027-1.359 0-.358-.013-.691-.03-1.049-.12-2.415-.469-3.682-1.51-5.831-.888-1.826-2.69-3.648-4.45-4.584-2.175-1.158-4.14-1.57-6.595-1.672-1.307-.051-2.621-.037-3.931-.024-.788.007-1.576.014-2.358.007-3.169-.02-6.335-.078-9.495-.344-3.312-.276-6.598-.651-9.92-.763-1.849-.061-8.291-.024-9.654-.048-3.635-.058-15.216.01-16.179.01-2.065.008-3.821.21-5.447 1.177-.795.627-1.59 1.257-2.385 1.887-.658.807-1.28 1.638-1.866 2.5-.898 1.304-1.393 3.099-1.61 4.71-.316 2.333-1.561 18.416-1.837 21.887-.136 1.699-.524 9.277-.524 12.989" fill="#6fd8e5"/><g fill="#402860"><path d="m17.667 25.17c0 2.585 2.144 4.74 4.714 4.74 2.57 0 4.714-2.156 4.714-4.74 0-2.585-2.144-4.74-4.714-4.74-2.57 0-4.714 2.156-4.714 4.74"/><path d="m56.42 25.494c0 2.585 2.144 4.74 4.714 4.74 2.57 0 4.714-2.156 4.714-4.74 0-2.585-2.144-4.74-4.714-4.74-2.57 0-4.714 2.156-4.714 4.74"/><path d="m28.799 36.666c-.438.417-.593.873-.818 1.419-.326.807-.124 1.992.302 2.729.026.045.053.09.081.134.034.073.072.146.113.217.151.351.295.706.454 1.053.295.62.682 1.134 1.109 1.676.372.476.857.873 1.314 1.267.899.776 1.806 1.513 2.776 2.203 2.12 1.513 4.749 1.93 7.292 2.01 1.035.031 2.109.082 3.14-.012 1.485-.133 2.822-.596 4.105-1.36.861-.511 1.648-1.154 2.392-1.817.659-.585 1.349-1.138 1.985-1.75.252-.242.488-.495.725-.756.492-.54 1.01-1.13 1.242-1.825.265-.3.469-.66.588-1.094.457-1.672-.671-3.165-2.19-3.672-.481-.164-1.016-.21-1.516-.242-.438-.023-.884-.008-1.322-.027-.593-.027-1.186-.094-1.779-.144-1.128-.094-2.256-.183-3.388-.226-1.151-.043-2.291-.187-3.439-.296-.853-.082-1.721-.047-2.578-.047h-2.388c-.967 0-1.937-.022-2.907-.023-.824-.169-4.939.245-5.292.584"/></g></g></svg>